<mxfile host="app.diagrams.net" modified="2020-07-21T23:22:23.296Z" agent="5.0 (Windows NT 10.0; Win64; x64) AppleWebKit/537.36 (KHTML, like Gecko) Chrome/83.0.4103.116 Safari/537.36" etag="c9XelrGyf-TLvm6uTv3O" version="13.4.9" type="github" pages="2">
  <diagram id="prtHgNgQTEPvFCAcTncT" name="Legend">
    <mxGraphModel dx="3076" dy="742" grid="1" gridSize="16" guides="1" tooltips="1" connect="1" arrows="1" fold="1" page="1" pageScale="1" pageWidth="827" pageHeight="1169" math="0" shadow="0">
      <root>
        <mxCell id="0" />
        <mxCell id="1" parent="0" />
        <mxCell id="1cZQTdq6hkjv82BdzqhY-70" value="Key Entity Types" style="swimlane;html=1;childLayout=stackLayout;resizeParent=1;resizeParentMax=0;horizontal=1;startSize=34;horizontalStack=0;verticalAlign=middle;fillColor=#00CCCC;fontSize=14;fontFamily=Verdana;comic=1;gradientDirection=west;swimlaneFillColor=#ffffff;glass=0;shadow=0;sketch=1;align=center;movable=1;resizable=1;rotatable=1;deletable=1;editable=1;connectable=1;" parent="1" vertex="1">
          <mxGeometry x="-864" y="112" width="1054" height="514" as="geometry">
            <mxRectangle x="-100" y="270" width="130" height="20" as="alternateBounds" />
          </mxGeometry>
        </mxCell>
        <mxCell id="1cZQTdq6hkjv82BdzqhY-71" value="Products" style="swimlane;html=1;startSize=36;horizontal=0;sketch=1;fillColor=#FF9999;fontSize=17;" parent="1cZQTdq6hkjv82BdzqhY-70" vertex="1">
          <mxGeometry y="34" width="1054" height="120" as="geometry">
            <mxRectangle y="34" width="1054" height="20" as="alternateBounds" />
          </mxGeometry>
        </mxCell>
        <mxCell id="1cZQTdq6hkjv82BdzqhY-89" value="&lt;b&gt;Bundle&lt;/b&gt;" style="rounded=1;whiteSpace=wrap;html=1;strokeWidth=2;fillWeight=4;hachureGap=8;hachureAngle=45;fillColor=#CCCCCC;sketch=1;strokeColor=#999999;" parent="1cZQTdq6hkjv82BdzqhY-71" vertex="1">
          <mxGeometry x="60" y="30" width="120" height="60" as="geometry" />
        </mxCell>
        <mxCell id="1cZQTdq6hkjv82BdzqhY-90" value="&lt;b&gt;&lt;font style=&quot;font-size: 14px&quot;&gt;Package&lt;/font&gt;&lt;/b&gt;" style="rounded=1;whiteSpace=wrap;html=1;strokeWidth=2;fillWeight=4;hachureGap=8;hachureAngle=45;fillColor=#FF9999;sketch=1;strokeColor=#CC0000;" parent="1cZQTdq6hkjv82BdzqhY-71" vertex="1">
          <mxGeometry x="245" y="30" width="120" height="60" as="geometry" />
        </mxCell>
        <mxCell id="1cZQTdq6hkjv82BdzqhY-91" value="&lt;b&gt;Promotion&lt;/b&gt;" style="rounded=1;whiteSpace=wrap;html=1;strokeWidth=2;fillWeight=4;hachureGap=8;hachureAngle=45;fillColor=#FFFF99;sketch=1;strokeColor=#FFFF00;" parent="1cZQTdq6hkjv82BdzqhY-71" vertex="1">
          <mxGeometry x="430" y="30" width="120" height="60" as="geometry" />
        </mxCell>
        <mxCell id="1cZQTdq6hkjv82BdzqhY-72" value="Components" style="swimlane;html=1;startSize=36;horizontal=0;sketch=1;fillColor=#FF9999;fontSize=17;" parent="1cZQTdq6hkjv82BdzqhY-70" vertex="1">
          <mxGeometry y="154" width="1054" height="120" as="geometry">
            <mxRectangle y="154" width="1054" height="20" as="alternateBounds" />
          </mxGeometry>
        </mxCell>
        <mxCell id="1cZQTdq6hkjv82BdzqhY-95" value="&lt;b&gt;Logical Resource&lt;/b&gt;" style="rounded=1;whiteSpace=wrap;html=1;strokeWidth=2;fillWeight=4;hachureGap=8;hachureAngle=45;fillColor=#99FFFF;sketch=1;strokeColor=#0000CC;" parent="1cZQTdq6hkjv82BdzqhY-72" vertex="1">
          <mxGeometry x="600" y="30" width="120" height="60" as="geometry" />
        </mxCell>
        <mxCell id="1cZQTdq6hkjv82BdzqhY-85" value="&lt;b&gt;Product Specification&lt;/b&gt;" style="rounded=1;whiteSpace=wrap;html=1;strokeWidth=2;fillWeight=4;hachureGap=8;hachureAngle=45;fillColor=#FFCC99;sketch=1;strokeColor=#FF8000;" parent="1cZQTdq6hkjv82BdzqhY-72" vertex="1">
          <mxGeometry x="60" y="30" width="120" height="60" as="geometry" />
        </mxCell>
        <mxCell id="1cZQTdq6hkjv82BdzqhY-87" value="&lt;b&gt;CFS Specification&lt;/b&gt;" style="rounded=1;whiteSpace=wrap;html=1;strokeWidth=2;fillWeight=4;hachureGap=8;hachureAngle=45;fillColor=#C3ABD0;sketch=1;strokeColor=#C3ABD0;" parent="1cZQTdq6hkjv82BdzqhY-72" vertex="1">
          <mxGeometry x="245" y="30" width="120" height="60" as="geometry" />
        </mxCell>
        <mxCell id="1cZQTdq6hkjv82BdzqhY-88" value="&lt;b&gt;RFS Specification&lt;/b&gt;" style="rounded=1;whiteSpace=wrap;html=1;strokeWidth=2;fillWeight=4;hachureGap=8;hachureAngle=45;fillColor=#FF99FF;sketch=1;strokeColor=#FF0080;" parent="1cZQTdq6hkjv82BdzqhY-72" vertex="1">
          <mxGeometry x="430" y="30" width="120" height="60" as="geometry" />
        </mxCell>
        <mxCell id="1cZQTdq6hkjv82BdzqhY-96" value="&lt;b&gt;Physical Resource&lt;/b&gt;" style="rounded=1;whiteSpace=wrap;html=1;strokeWidth=2;fillWeight=4;hachureGap=8;hachureAngle=45;fillColor=#FFB366;sketch=1;strokeColor=#331A00;" parent="1cZQTdq6hkjv82BdzqhY-72" vertex="1">
          <mxGeometry x="770" y="30" width="120" height="60" as="geometry" />
        </mxCell>
        <mxCell id="1cZQTdq6hkjv82BdzqhY-73" value="Charges" style="swimlane;html=1;startSize=36;horizontal=0;sketch=1;fillColor=#FF9999;fontSize=17;" parent="1cZQTdq6hkjv82BdzqhY-70" vertex="1">
          <mxGeometry y="274" width="1054" height="120" as="geometry">
            <mxRectangle y="274" width="1054" height="20" as="alternateBounds" />
          </mxGeometry>
        </mxCell>
        <mxCell id="1cZQTdq6hkjv82BdzqhY-92" value="&lt;b&gt;MRC&lt;/b&gt;" style="rounded=1;whiteSpace=wrap;html=1;strokeWidth=2;fillWeight=4;hachureGap=8;hachureAngle=45;fillColor=#E6D0DE;sketch=1;strokeColor=#CC00CC;" parent="1cZQTdq6hkjv82BdzqhY-73" vertex="1">
          <mxGeometry x="60" y="25" width="120" height="60" as="geometry" />
        </mxCell>
        <mxCell id="1cZQTdq6hkjv82BdzqhY-94" value="&lt;b&gt;Standalone NRC&lt;/b&gt;" style="rounded=1;whiteSpace=wrap;html=1;strokeWidth=2;fillWeight=4;hachureGap=8;hachureAngle=45;fillColor=#A9C4EB;sketch=1;strokeColor=#0000FF;" parent="1cZQTdq6hkjv82BdzqhY-73" vertex="1">
          <mxGeometry x="430" y="25" width="120" height="60" as="geometry" />
        </mxCell>
        <mxCell id="1cZQTdq6hkjv82BdzqhY-93" value="&lt;b&gt;NRC&lt;/b&gt;" style="rounded=1;whiteSpace=wrap;html=1;strokeWidth=2;fillWeight=4;hachureGap=8;hachureAngle=45;fillColor=#99FF99;sketch=1;strokeColor=#000099;" parent="1cZQTdq6hkjv82BdzqhY-73" vertex="1">
          <mxGeometry x="250" y="25" width="120" height="60" as="geometry" />
        </mxCell>
        <mxCell id="4V9SvperPOSG7LQNxYiz-35" value="Discounts" style="swimlane;html=1;startSize=36;horizontal=0;sketch=1;fillColor=#FF9999;fontSize=17;" parent="1cZQTdq6hkjv82BdzqhY-70" vertex="1">
          <mxGeometry y="394" width="1054" height="120" as="geometry">
            <mxRectangle y="394" width="1054" height="20" as="alternateBounds" />
          </mxGeometry>
        </mxCell>
        <mxCell id="1cZQTdq6hkjv82BdzqhY-97" value="&lt;b&gt;Charge Based Discount&lt;/b&gt;" style="rounded=1;whiteSpace=wrap;html=1;strokeWidth=2;fillWeight=4;hachureGap=8;hachureAngle=45;fillColor=#B3FF66;sketch=1;strokeColor=#006600;" parent="4V9SvperPOSG7LQNxYiz-35" vertex="1">
          <mxGeometry x="60" y="30" width="120" height="60" as="geometry" />
        </mxCell>
      </root>
    </mxGraphModel>
  </diagram>
  <diagram id="I1T78_tcsn_PDNe_P3xO" name="Broadband">
    <mxGraphModel dx="4047" dy="781" grid="1" gridSize="10" guides="1" tooltips="1" connect="1" arrows="1" fold="1" page="1" pageScale="1" pageWidth="850" pageHeight="1100" math="0" shadow="0">
      <root>
        <mxCell id="mg6cTO-XyoBPzCco9NDi-0" />
        <mxCell id="mg6cTO-XyoBPzCco9NDi-1" parent="mg6cTO-XyoBPzCco9NDi-0" />
        <mxCell id="_UF5bheE4APpZaVOhVbd-0" value="&lt;b&gt;&lt;font style=&quot;font-size: 14px&quot;&gt;Broadband&lt;/font&gt;&lt;/b&gt;" style="rounded=1;whiteSpace=wrap;html=1;strokeWidth=2;fillWeight=4;hachureGap=8;hachureAngle=45;fillColor=#FF9999;sketch=1;strokeColor=#CC0000;" parent="mg6cTO-XyoBPzCco9NDi-1" vertex="1">
          <mxGeometry x="-1360" y="91" width="120" height="60" as="geometry" />
        </mxCell>
        <mxCell id="x47XH8rzdaq74V-F8GWH-0" value="&lt;b&gt;MRC&lt;/b&gt;" style="rounded=1;whiteSpace=wrap;html=1;strokeWidth=2;fillWeight=4;hachureGap=8;hachureAngle=45;fillColor=#E6D0DE;sketch=1;strokeColor=#CC00CC;" parent="mg6cTO-XyoBPzCco9NDi-1" vertex="1">
          <mxGeometry x="-1110" y="90" width="120" height="60" as="geometry" />
        </mxCell>
        <mxCell id="rddNcwCKKIF5xsv1KXAo-0" value="&lt;b&gt;Broadband Product Specification&lt;/b&gt;" style="rounded=1;whiteSpace=wrap;html=1;strokeWidth=2;fillWeight=4;hachureGap=8;hachureAngle=45;fillColor=#FFCC99;sketch=1;strokeColor=#FF8000;" parent="mg6cTO-XyoBPzCco9NDi-1" vertex="1">
          <mxGeometry x="-1360" y="231" width="120" height="60" as="geometry" />
        </mxCell>
        <mxCell id="rddNcwCKKIF5xsv1KXAo-1" value="" style="endArrow=none;html=1;entryX=0;entryY=0.5;entryDx=0;entryDy=0;exitX=1;exitY=0.5;exitDx=0;exitDy=0;rounded=1;" parent="mg6cTO-XyoBPzCco9NDi-1" source="_UF5bheE4APpZaVOhVbd-0" target="x47XH8rzdaq74V-F8GWH-0" edge="1">
          <mxGeometry width="50" height="50" relative="1" as="geometry">
            <mxPoint x="-1150" y="411" as="sourcePoint" />
            <mxPoint x="-1100" y="361" as="targetPoint" />
            <Array as="points" />
          </mxGeometry>
        </mxCell>
        <mxCell id="rddNcwCKKIF5xsv1KXAo-2" value="" style="endArrow=none;html=1;entryX=0.5;entryY=1;entryDx=0;entryDy=0;" parent="mg6cTO-XyoBPzCco9NDi-1" source="rddNcwCKKIF5xsv1KXAo-0" target="_UF5bheE4APpZaVOhVbd-0" edge="1">
          <mxGeometry width="50" height="50" relative="1" as="geometry">
            <mxPoint x="-1150" y="411" as="sourcePoint" />
            <mxPoint x="-1100" y="361" as="targetPoint" />
          </mxGeometry>
        </mxCell>
        <mxCell id="rddNcwCKKIF5xsv1KXAo-3" value="&lt;b&gt;VAS&lt;/b&gt;" style="rounded=1;whiteSpace=wrap;html=1;strokeWidth=2;fillWeight=4;hachureGap=8;hachureAngle=45;fillColor=#FFCC99;sketch=1;strokeColor=#FF8000;" parent="mg6cTO-XyoBPzCco9NDi-1" vertex="1">
          <mxGeometry x="-850" y="351" width="120" height="60" as="geometry" />
        </mxCell>
        <mxCell id="rddNcwCKKIF5xsv1KXAo-4" value="&lt;b&gt;Equipment&lt;/b&gt;" style="rounded=1;whiteSpace=wrap;html=1;strokeWidth=2;fillWeight=4;hachureGap=8;hachureAngle=45;fillColor=#FFCC99;sketch=1;strokeColor=#FF8000;" parent="mg6cTO-XyoBPzCco9NDi-1" vertex="1">
          <mxGeometry x="-1360" y="351" width="120" height="60" as="geometry" />
        </mxCell>
        <mxCell id="rddNcwCKKIF5xsv1KXAo-5" value="&lt;b&gt;Config&lt;/b&gt;" style="rounded=1;whiteSpace=wrap;html=1;strokeWidth=2;fillWeight=4;hachureGap=8;hachureAngle=45;fillColor=#FFCC99;sketch=1;strokeColor=#FF8000;" parent="mg6cTO-XyoBPzCco9NDi-1" vertex="1">
          <mxGeometry x="-1740" y="351" width="120" height="60" as="geometry" />
        </mxCell>
        <mxCell id="Pvte_W7f6IlpXU7QtyQ6-1" value="&lt;b&gt;CFS Specification&lt;/b&gt;" style="rounded=1;whiteSpace=wrap;html=1;strokeWidth=2;fillWeight=4;hachureGap=8;hachureAngle=45;fillColor=#C3ABD0;sketch=1;strokeColor=#C3ABD0;" parent="mg6cTO-XyoBPzCco9NDi-1" vertex="1">
          <mxGeometry x="-1440" y="601" width="120" height="60" as="geometry" />
        </mxCell>
        <mxCell id="Pvte_W7f6IlpXU7QtyQ6-2" value="&lt;b&gt;RFS Specification&lt;/b&gt;" style="rounded=1;whiteSpace=wrap;html=1;strokeWidth=2;fillWeight=4;hachureGap=8;hachureAngle=45;fillColor=#FF99FF;sketch=1;strokeColor=#FF0080;" parent="mg6cTO-XyoBPzCco9NDi-1" vertex="1">
          <mxGeometry x="-1440" y="705" width="120" height="60" as="geometry" />
        </mxCell>
        <mxCell id="Pvte_W7f6IlpXU7QtyQ6-3" value="&lt;b&gt;Physical Resource&lt;/b&gt;" style="rounded=1;whiteSpace=wrap;html=1;strokeWidth=2;fillWeight=4;hachureGap=8;hachureAngle=45;fillColor=#FFB366;sketch=1;strokeColor=#331A00;" parent="mg6cTO-XyoBPzCco9NDi-1" vertex="1">
          <mxGeometry x="-1440" y="811" width="120" height="60" as="geometry" />
        </mxCell>
        <mxCell id="Pvte_W7f6IlpXU7QtyQ6-4" value="&lt;b&gt;Router A&lt;/b&gt;" style="rounded=1;whiteSpace=wrap;html=1;strokeWidth=2;fillWeight=4;hachureGap=8;hachureAngle=45;fillColor=#FFCC99;sketch=1;strokeColor=#FF8000;" parent="mg6cTO-XyoBPzCco9NDi-1" vertex="1">
          <mxGeometry x="-1440" y="481" width="120" height="60" as="geometry" />
        </mxCell>
        <mxCell id="Pvte_W7f6IlpXU7QtyQ6-5" value="&lt;b&gt;Router B&lt;/b&gt;" style="rounded=1;whiteSpace=wrap;html=1;strokeWidth=2;fillWeight=4;hachureGap=8;hachureAngle=45;fillColor=#FFCC99;sketch=1;strokeColor=#FF8000;" parent="mg6cTO-XyoBPzCco9NDi-1" vertex="1">
          <mxGeometry x="-1280" y="481" width="120" height="60" as="geometry" />
        </mxCell>
        <mxCell id="Pvte_W7f6IlpXU7QtyQ6-9" value="&lt;b&gt;VAS A&lt;/b&gt;" style="rounded=1;whiteSpace=wrap;html=1;strokeWidth=2;fillWeight=4;hachureGap=8;hachureAngle=45;fillColor=#FFCC99;sketch=1;strokeColor=#FF8000;" parent="mg6cTO-XyoBPzCco9NDi-1" vertex="1">
          <mxGeometry x="-940" y="481" width="120" height="60" as="geometry" />
        </mxCell>
        <mxCell id="Pvte_W7f6IlpXU7QtyQ6-10" value="&lt;b&gt;VAS B&lt;/b&gt;" style="rounded=1;whiteSpace=wrap;html=1;strokeWidth=2;fillWeight=4;hachureGap=8;hachureAngle=45;fillColor=#FFCC99;sketch=1;strokeColor=#FF8000;" parent="mg6cTO-XyoBPzCco9NDi-1" vertex="1">
          <mxGeometry x="-770" y="481" width="120" height="60" as="geometry" />
        </mxCell>
        <mxCell id="Pvte_W7f6IlpXU7QtyQ6-11" value="" style="endArrow=none;html=1;entryX=0.5;entryY=1;entryDx=0;entryDy=0;exitX=0.5;exitY=0;exitDx=0;exitDy=0;" parent="mg6cTO-XyoBPzCco9NDi-1" source="rddNcwCKKIF5xsv1KXAo-4" target="rddNcwCKKIF5xsv1KXAo-0" edge="1">
          <mxGeometry width="50" height="50" relative="1" as="geometry">
            <mxPoint x="-1150" y="531" as="sourcePoint" />
            <mxPoint x="-1100" y="481" as="targetPoint" />
          </mxGeometry>
        </mxCell>
        <mxCell id="Pvte_W7f6IlpXU7QtyQ6-12" value="" style="endArrow=none;html=1;entryX=0;entryY=0.5;entryDx=0;entryDy=0;exitX=1;exitY=0.5;exitDx=0;exitDy=0;" parent="mg6cTO-XyoBPzCco9NDi-1" source="rddNcwCKKIF5xsv1KXAo-4" target="rddNcwCKKIF5xsv1KXAo-3" edge="1">
          <mxGeometry width="50" height="50" relative="1" as="geometry">
            <mxPoint x="-1150" y="531" as="sourcePoint" />
            <mxPoint x="-1100" y="481" as="targetPoint" />
          </mxGeometry>
        </mxCell>
        <mxCell id="Pvte_W7f6IlpXU7QtyQ6-13" value="" style="endArrow=none;html=1;entryX=0;entryY=0.5;entryDx=0;entryDy=0;exitX=1;exitY=0.5;exitDx=0;exitDy=0;" parent="mg6cTO-XyoBPzCco9NDi-1" source="rddNcwCKKIF5xsv1KXAo-5" target="rddNcwCKKIF5xsv1KXAo-4" edge="1">
          <mxGeometry width="50" height="50" relative="1" as="geometry">
            <mxPoint x="-1150" y="531" as="sourcePoint" />
            <mxPoint x="-1100" y="481" as="targetPoint" />
          </mxGeometry>
        </mxCell>
        <mxCell id="Pvte_W7f6IlpXU7QtyQ6-14" value="" style="endArrow=none;html=1;entryX=0.5;entryY=1;entryDx=0;entryDy=0;exitX=0.5;exitY=0;exitDx=0;exitDy=0;curved=1;" parent="mg6cTO-XyoBPzCco9NDi-1" source="Pvte_W7f6IlpXU7QtyQ6-5" target="rddNcwCKKIF5xsv1KXAo-4" edge="1">
          <mxGeometry width="50" height="50" relative="1" as="geometry">
            <mxPoint x="-1150" y="531" as="sourcePoint" />
            <mxPoint x="-1100" y="481" as="targetPoint" />
            <Array as="points">
              <mxPoint x="-1240" y="431" />
            </Array>
          </mxGeometry>
        </mxCell>
        <mxCell id="Pvte_W7f6IlpXU7QtyQ6-15" value="" style="endArrow=none;html=1;entryX=0.5;entryY=1;entryDx=0;entryDy=0;exitX=0.5;exitY=0;exitDx=0;exitDy=0;curved=1;" parent="mg6cTO-XyoBPzCco9NDi-1" source="Pvte_W7f6IlpXU7QtyQ6-4" target="rddNcwCKKIF5xsv1KXAo-4" edge="1">
          <mxGeometry width="50" height="50" relative="1" as="geometry">
            <mxPoint x="-1150" y="531" as="sourcePoint" />
            <mxPoint x="-1100" y="481" as="targetPoint" />
            <Array as="points">
              <mxPoint x="-1370" y="441" />
            </Array>
          </mxGeometry>
        </mxCell>
        <mxCell id="Pvte_W7f6IlpXU7QtyQ6-16" value="" style="endArrow=none;html=1;entryX=0.5;entryY=1;entryDx=0;entryDy=0;exitX=0.5;exitY=0;exitDx=0;exitDy=0;curved=1;" parent="mg6cTO-XyoBPzCco9NDi-1" source="Pvte_W7f6IlpXU7QtyQ6-10" target="rddNcwCKKIF5xsv1KXAo-3" edge="1">
          <mxGeometry width="50" height="50" relative="1" as="geometry">
            <mxPoint x="-720" y="481" as="sourcePoint" />
            <mxPoint x="-800" y="411" as="targetPoint" />
            <Array as="points">
              <mxPoint x="-740" y="431" />
            </Array>
          </mxGeometry>
        </mxCell>
        <mxCell id="Pvte_W7f6IlpXU7QtyQ6-17" value="" style="endArrow=none;html=1;entryX=0.5;entryY=1;entryDx=0;entryDy=0;exitX=0.5;exitY=0;exitDx=0;exitDy=0;curved=1;" parent="mg6cTO-XyoBPzCco9NDi-1" edge="1">
          <mxGeometry width="50" height="50" relative="1" as="geometry">
            <mxPoint x="-870" y="481" as="sourcePoint" />
            <mxPoint x="-790" y="411" as="targetPoint" />
            <Array as="points">
              <mxPoint x="-860" y="441" />
            </Array>
          </mxGeometry>
        </mxCell>
        <mxCell id="33vELNw-Rt1fG5tFwwt0-0" value="&lt;b&gt;Charge Based Discount&lt;/b&gt;" style="rounded=1;whiteSpace=wrap;html=1;strokeWidth=2;fillWeight=4;hachureGap=8;hachureAngle=45;fillColor=#B3FF66;sketch=1;strokeColor=#006600;" parent="mg6cTO-XyoBPzCco9NDi-1" vertex="1">
          <mxGeometry x="-1110" y="231" width="120" height="60" as="geometry" />
        </mxCell>
        <mxCell id="33vELNw-Rt1fG5tFwwt0-1" value="" style="endArrow=none;html=1;fontColor=#000000;entryX=0.5;entryY=1;entryDx=0;entryDy=0;exitX=0.5;exitY=0;exitDx=0;exitDy=0;" parent="mg6cTO-XyoBPzCco9NDi-1" source="33vELNw-Rt1fG5tFwwt0-0" target="x47XH8rzdaq74V-F8GWH-0" edge="1">
          <mxGeometry width="50" height="50" relative="1" as="geometry">
            <mxPoint x="-1150" y="531" as="sourcePoint" />
            <mxPoint x="-1100" y="481" as="targetPoint" />
          </mxGeometry>
        </mxCell>
        <mxCell id="33vELNw-Rt1fG5tFwwt0-2" value="" style="endArrow=none;html=1;fontColor=#000000;entryX=0.5;entryY=1;entryDx=0;entryDy=0;" parent="mg6cTO-XyoBPzCco9NDi-1" target="Pvte_W7f6IlpXU7QtyQ6-4" edge="1">
          <mxGeometry width="50" height="50" relative="1" as="geometry">
            <mxPoint x="-1380" y="598" as="sourcePoint" />
            <mxPoint x="-1100" y="481" as="targetPoint" />
          </mxGeometry>
        </mxCell>
        <mxCell id="33vELNw-Rt1fG5tFwwt0-3" value="" style="endArrow=none;html=1;fontColor=#000000;entryX=0.5;entryY=1;entryDx=0;entryDy=0;exitX=0.5;exitY=0;exitDx=0;exitDy=0;" parent="mg6cTO-XyoBPzCco9NDi-1" source="Pvte_W7f6IlpXU7QtyQ6-2" edge="1">
          <mxGeometry width="50" height="50" relative="1" as="geometry">
            <mxPoint x="-1380" y="701" as="sourcePoint" />
            <mxPoint x="-1380.5" y="661" as="targetPoint" />
          </mxGeometry>
        </mxCell>
        <mxCell id="33vELNw-Rt1fG5tFwwt0-5" value="" style="endArrow=none;html=1;fontColor=#000000;entryX=0.5;entryY=1;entryDx=0;entryDy=0;exitX=0.5;exitY=0;exitDx=0;exitDy=0;" parent="mg6cTO-XyoBPzCco9NDi-1" source="Pvte_W7f6IlpXU7QtyQ6-3" target="Pvte_W7f6IlpXU7QtyQ6-2" edge="1">
          <mxGeometry width="50" height="50" relative="1" as="geometry">
            <mxPoint x="-1370" y="715" as="sourcePoint" />
            <mxPoint x="-1370.5" y="671" as="targetPoint" />
          </mxGeometry>
        </mxCell>
        <mxCell id="VVr8rjp4nR3wUm0zokTB-0" value="&lt;b&gt;NRC&lt;/b&gt;" style="rounded=1;whiteSpace=wrap;html=1;strokeWidth=2;fillWeight=4;hachureGap=8;hachureAngle=45;fillColor=#99FF99;sketch=1;strokeColor=#000099;" parent="mg6cTO-XyoBPzCco9NDi-1" vertex="1">
          <mxGeometry x="-1110" y="481" width="120" height="60" as="geometry" />
        </mxCell>
        <mxCell id="VVr8rjp4nR3wUm0zokTB-2" value="" style="endArrow=none;html=1;fontColor=#000000;exitX=1;exitY=0.5;exitDx=0;exitDy=0;entryX=0;entryY=0.5;entryDx=0;entryDy=0;" parent="mg6cTO-XyoBPzCco9NDi-1" source="Pvte_W7f6IlpXU7QtyQ6-5" target="VVr8rjp4nR3wUm0zokTB-0" edge="1">
          <mxGeometry width="50" height="50" relative="1" as="geometry">
            <mxPoint x="-1060" y="651" as="sourcePoint" />
            <mxPoint x="-1010" y="601" as="targetPoint" />
          </mxGeometry>
        </mxCell>
        <mxCell id="RLzM8aVlw-Zm3IV9jwDc-0" value="&lt;b&gt;Standalone NRC&lt;/b&gt;" style="rounded=1;whiteSpace=wrap;html=1;strokeWidth=2;fillWeight=4;hachureGap=8;hachureAngle=45;fillColor=#A9C4EB;sketch=1;strokeColor=#0000FF;" parent="mg6cTO-XyoBPzCco9NDi-1" vertex="1">
          <mxGeometry x="-1560" y="90" width="120" height="60" as="geometry" />
        </mxCell>
        <mxCell id="RLzM8aVlw-Zm3IV9jwDc-1" value="" style="endArrow=none;html=1;fontColor=#000000;exitX=1;exitY=0.5;exitDx=0;exitDy=0;entryX=0;entryY=0.5;entryDx=0;entryDy=0;" parent="mg6cTO-XyoBPzCco9NDi-1" source="RLzM8aVlw-Zm3IV9jwDc-0" target="_UF5bheE4APpZaVOhVbd-0" edge="1">
          <mxGeometry width="50" height="50" relative="1" as="geometry">
            <mxPoint x="-1150" y="531" as="sourcePoint" />
            <mxPoint x="-1100" y="481" as="targetPoint" />
          </mxGeometry>
        </mxCell>
      </root>
    </mxGraphModel>
  </diagram>
</mxfile>
